<svg width="26" height="26" viewBox="0 0 26 26" fill="none" xmlns="http://www.w3.org/2000/svg">
<path d="M13 0C5.82029 0 0 5.82029 0 13C0 20.1797 5.82029 26 13 26C20.1797 26 26 20.1797 26 13C26 5.82029 20.1797 0 13 0ZM12.5922 4.46082C13.1879 4.46084 13.6729 4.62148 14.0474 4.94483C14.4218 5.26823 14.6091 5.69469 14.6091 6.2223C14.6091 6.74995 14.4218 7.17481 14.0474 7.49818C13.6729 7.82158 13.1879 7.9838 12.5922 7.98378C11.9965 7.9838 11.5114 7.82158 11.137 7.49818C10.7796 7.17481 10.6006 6.74995 10.6006 6.2223C10.6006 5.69469 10.7796 5.26823 11.137 4.94483C11.5114 4.62146 11.9965 4.46084 12.5922 4.46082ZM14.4552 10.1531L14.9662 10.7403C14.6939 11.4551 14.5568 12.2463 14.5568 13.1143V19.3699C14.5568 19.5912 14.5751 19.7434 14.6091 19.8285C14.6602 19.9136 14.7706 19.9989 14.9408 20.084C15.2472 20.2712 15.6972 20.4502 16.2929 20.6204L16.1151 21.5392C14.6514 21.386 13.6211 21.3107 13.0254 21.3107C12.4297 21.3107 11.4093 21.386 9.96266 21.5392L9.75795 20.6204C10.3707 20.4842 10.8222 20.3136 11.1116 20.1094C11.3669 19.9562 11.494 19.7103 11.494 19.3699V12.9873C11.494 12.3916 11.2633 12.0939 10.8037 12.0939L9.91031 12.2716L9.70719 11.2512C10.3199 10.996 11.1278 10.7484 12.132 10.5102C13.1361 10.2719 13.9105 10.1531 14.4552 10.1531Z" fill="white"/>
</svg>
