<svg width="26" height="26" viewBox="0 0 26 26" fill="none" xmlns="http://www.w3.org/2000/svg">
<path d="M25.6784 11.0241L22.7723 10.1574C22.5713 9.45656 22.295 8.7795 21.9481 8.13809L23.3708 5.47744C23.4242 5.37701 23.4438 5.26206 23.4266 5.14965C23.4094 5.03724 23.3564 4.93337 23.2754 4.85344L21.2021 2.77345C21.122 2.69257 21.0181 2.63961 20.9056 2.62243C20.793 2.60526 20.678 2.62479 20.5774 2.67812L17.9315 4.09078C17.2832 3.72735 16.5965 3.4367 15.8842 3.22412L15.0167 0.355464C14.98 0.249746 14.9107 0.158384 14.8187 0.0945311C14.7267 0.030678 14.6168 -0.002374 14.5048 0.000132746H11.5726C11.46 0.000656707 11.3504 0.0370825 11.2599 0.104109C11.1694 0.171135 11.1027 0.265265 11.0695 0.372798L10.202 3.23278C9.48368 3.44423 8.79119 3.73491 8.13729 4.09945L5.53474 2.69545C5.43421 2.64212 5.31915 2.62259 5.20663 2.63977C5.09411 2.65694 4.99013 2.7099 4.91013 2.79079L2.80207 4.84477C2.72111 4.9247 2.66809 5.02857 2.6509 5.14098C2.63371 5.25339 2.65326 5.36834 2.70665 5.46877L4.11202 8.06876C3.74771 8.71927 3.45676 9.40815 3.2445 10.1227L0.373031 10.9894C0.265393 11.0226 0.171171 11.0893 0.104078 11.1797C0.0369861 11.2701 0.000524476 11.3795 0 11.4921V14.4214C0.000524476 14.5339 0.0369861 14.6434 0.104078 14.7338C0.171171 14.8242 0.265393 14.8908 0.373031 14.9241L3.26185 15.7907C3.47643 16.4934 3.76733 17.1706 4.12937 17.81L2.70665 20.5314C2.65326 20.6318 2.63371 20.7467 2.6509 20.8591C2.66809 20.9716 2.72111 21.0754 2.80207 21.1554L4.87543 23.2267C4.95543 23.3076 5.05941 23.3605 5.17193 23.3777C5.28445 23.3949 5.39951 23.3753 5.50004 23.322L8.18066 21.892C8.81478 22.2339 9.48368 22.507 10.1759 22.7067L11.0435 25.6273C11.0767 25.7349 11.1434 25.829 11.2339 25.896C11.3244 25.9631 11.434 25.9995 11.5466 26H14.4788C14.5915 25.9995 14.701 25.9631 14.7915 25.896C14.882 25.829 14.9487 25.7349 14.982 25.6273L15.8495 22.698C16.5358 22.4973 17.1989 22.2242 17.8274 21.8834L20.5254 23.322C20.6259 23.3753 20.741 23.3949 20.8535 23.3777C20.966 23.3605 21.07 23.3076 21.15 23.2267L23.2234 21.1554C23.3043 21.0754 23.3573 20.9716 23.3745 20.8591C23.3917 20.7467 23.3722 20.6318 23.3188 20.5314L21.8787 17.8447C22.2234 17.2144 22.4997 16.549 22.7029 15.8601L25.6264 14.9934C25.734 14.9602 25.8282 14.8935 25.8953 14.8031C25.9624 14.7127 25.9989 14.6033 25.9994 14.4907V11.5354C26.0045 11.4276 25.9765 11.3209 25.9191 11.2295C25.8618 11.1381 25.7778 11.0664 25.6784 11.0241ZM13.0387 17.7667C12.0951 17.7667 11.1726 17.4872 10.3879 16.9634C9.60329 16.4396 8.99174 15.6952 8.63061 14.8242C8.26948 13.9532 8.17499 12.9948 8.35909 12.0701C8.54319 11.1455 8.99762 10.2962 9.6649 9.62954C10.3322 8.96291 11.1824 8.50894 12.1079 8.32502C13.0334 8.14109 13.9928 8.23549 14.8647 8.59626C15.7365 8.95704 16.4817 9.56799 17.006 10.3519C17.5302 11.1357 17.8101 12.0573 17.8101 13.0001C17.8101 14.2643 17.3074 15.4767 16.4126 16.3706C15.5178 17.2645 14.3042 17.7667 13.0387 17.7667Z" fill="white"/>
</svg>
