<svg width="21" height="22" viewBox="0 0 21 22" fill="none" xmlns="http://www.w3.org/2000/svg">
<path d="M9.85823 11C12.6588 11 14.9291 8.76146 14.9291 6.00002C14.9291 3.23859 12.6588 1 9.85823 1C7.05766 1 4.78735 3.23859 4.78735 6.00002C4.78735 8.76146 7.05766 11 9.85823 11Z" stroke="white" stroke-width="2"/>
<path d="M14.9291 20.9998H3.02879C2.74115 20.9999 2.45679 20.9396 2.19458 20.823C1.93236 20.7064 1.6983 20.5362 1.50791 20.3236C1.31752 20.111 1.17517 19.8609 1.0903 19.5899C1.00543 19.3189 0.979987 19.0332 1.01565 18.7518L1.41118 15.6278C1.50316 14.902 1.86088 14.2343 2.41707 13.7504C2.97326 13.2664 3.68961 12.9995 4.4314 12.9998H4.78737" stroke="white" stroke-width="2" stroke-linecap="round" stroke-linejoin="round"/>
<path d="M14.8362 12.8789L19.0788 17.1216" stroke="white" stroke-width="2" stroke-linecap="round" stroke-linejoin="round"/>
<path d="M14.8057 17.1514L19.1084 12.8486" stroke="white" stroke-width="2" stroke-linecap="round" stroke-linejoin="round"/>
</svg>
