<svg width="19" height="19" viewBox="0 0 19 19" fill="none" xmlns="http://www.w3.org/2000/svg">
<path d="M8 16C9.77498 15.9996 11.4988 15.4054 12.897 14.312L17.293 18.708L18.707 17.294L14.311 12.898C15.405 11.4997 15.9996 9.77544 16 8C16 3.589 12.411 0 8 0C3.589 0 0 3.589 0 8C0 12.411 3.589 16 8 16ZM8 2C11.309 2 14 4.691 14 8C14 11.309 11.309 14 8 14C4.691 14 2 11.309 2 8C2 4.691 4.691 2 8 2Z" fill="#85898F"/>
<path d="M9.41207 6.58609C9.79107 6.96609 10.0001 7.46809 10.0001 8.00009H12.0001C12.001 7.47451 11.8977 6.95398 11.6961 6.46857C11.4946 5.98316 11.1989 5.54251 10.8261 5.17209C9.31207 3.66009 6.68707 3.66009 5.17407 5.17209L6.58607 6.58809C7.34607 5.83009 8.65607 5.83209 9.41207 6.58609Z" fill="#85898F"/>
</svg>
