<svg width="29" height="30" viewBox="0 0 29 30" fill="none" xmlns="http://www.w3.org/2000/svg">
<g filter="url(#filter0_d)">
<path d="M28 25.2351C28 25.4459 27.8813 25.639 27.644 25.8146C27.4067 25.9902 27.042 26.1351 26.5498 26.2493C26.0576 26.3634 25.5522 26.4688 25.0337 26.5654C24.5151 26.662 23.8516 26.7366 23.043 26.7893C22.2344 26.842 21.5312 26.8815 20.9336 26.9078C20.3359 26.9341 19.5669 26.9561 18.6265 26.9737C17.686 26.9912 16.9741 27 16.4907 27H12.5093L10.3735 26.9737L8.06641 26.9078L5.95703 26.7893L3.96631 26.5654L2.4502 26.2493L1.35596 25.8146L1 25.2351C1.03516 23.6898 2.00195 22.3244 3.90039 21.139C5.79883 19.9537 8.20703 19.1678 11.125 18.7815V17.9122C10.2109 17.5083 9.41992 16.9376 8.75195 16.2C8.08398 15.4624 7.55664 14.5976 7.16992 13.6054C6.7832 12.6132 6.50195 11.5507 6.32617 10.418C6.15039 9.28537 6.0625 8.06049 6.0625 6.74341C6.0625 5.61951 6.28223 4.61854 6.72168 3.74049C7.16113 2.86244 7.76758 2.15561 8.54102 1.62C9.31445 1.08439 10.2021 0.680488 11.2041 0.408293C12.2061 0.136098 13.3047 0 14.5 0C15.6953 0 16.7939 0.136098 17.7959 0.408293C18.7979 0.680488 19.6855 1.08439 20.459 1.62C21.2324 2.15561 21.8389 2.86244 22.2783 3.74049C22.7178 4.61854 22.9375 5.61951 22.9375 6.74341C22.9375 12.8898 21.25 16.6302 17.875 17.9649V18.7815C20.793 19.1678 23.2012 19.9537 25.0996 21.139C26.998 22.3244 27.9648 23.6898 28 25.2351Z" fill="white"/>
</g>
<defs>
<filter id="filter0_d" x="0" y="0" width="29" height="30" filterUnits="userSpaceOnUse" color-interpolation-filters="sRGB">
<feFlood flood-opacity="0" result="BackgroundImageFix"/>
<feColorMatrix in="SourceAlpha" type="matrix" values="0 0 0 0 0 0 0 0 0 0 0 0 0 0 0 0 0 0 127 0"/>
<feOffset dy="2"/>
<feGaussianBlur stdDeviation="0.5"/>
<feColorMatrix type="matrix" values="0 0 0 0 0 0 0 0 0 0 0 0 0 0 0 0 0 0 0.35 0"/>
<feBlend mode="normal" in2="BackgroundImageFix" result="effect1_dropShadow"/>
<feBlend mode="normal" in="SourceGraphic" in2="effect1_dropShadow" result="shape"/>
</filter>
</defs>
</svg>
