<svg width="42" height="27" viewBox="0 0 42 27" fill="none" xmlns="http://www.w3.org/2000/svg">
<path d="M21 23.6273C21 23.7912 20.9077 23.9415 20.7231 24.078C20.5386 24.2146 20.2549 24.3273 19.8721 24.4161C19.4893 24.5049 19.0962 24.5868 18.6929 24.662C18.2896 24.7371 17.7734 24.7951 17.1445 24.8361C16.5156 24.8771 15.9688 24.9078 15.5039 24.9283C15.0391 24.9488 14.4409 24.9659 13.7095 24.9795C12.978 24.9932 12.4243 25 12.0483 25H8.95166L7.29053 24.9795L5.49609 24.9283L3.85547 24.8361L2.30713 24.662L1.12793 24.4161L0.276855 24.078L0 23.6273C0.0273438 22.4254 0.779297 21.3634 2.25586 20.4415C3.73242 19.5195 5.60547 18.9083 7.875 18.6078V17.9317C7.16406 17.6176 6.54883 17.1737 6.0293 16.6C5.50977 16.0263 5.09961 15.3537 4.79883 14.582C4.49805 13.8102 4.2793 12.9839 4.14258 12.1029C4.00586 11.222 3.9375 10.2693 3.9375 9.24488C3.9375 8.37073 4.1084 7.5922 4.4502 6.90927C4.79199 6.22634 5.26367 5.67659 5.86523 5.26C6.4668 4.84341 7.15723 4.52927 7.93652 4.31756C8.71582 4.10585 9.57031 4 10.5 4C11.4297 4 12.2842 4.10585 13.0635 4.31756C13.8428 4.52927 14.5332 4.84341 15.1348 5.26C15.7363 5.67659 16.208 6.22634 16.5498 6.90927C16.8916 7.5922 17.0625 8.37073 17.0625 9.24488C17.0625 14.0254 15.75 16.9346 13.125 17.9727V18.6078C15.3945 18.9083 17.2676 19.5195 18.7441 20.4415C20.2207 21.3634 20.9727 22.4254 21 23.6273Z" fill="white"/>
<path d="M42 23.6273C42 23.7912 41.9077 23.9415 41.7231 24.078C41.5386 24.2146 41.2549 24.3273 40.8721 24.4161C40.4893 24.5049 40.0962 24.5868 39.6929 24.662C39.2896 24.7371 38.7734 24.7951 38.1445 24.8361C37.5156 24.8771 36.9688 24.9078 36.5039 24.9283C36.0391 24.9488 35.4409 24.9659 34.7095 24.9795C33.978 24.9932 33.4243 25 33.0483 25H29.9517L28.2905 24.9795L26.4961 24.9283L24.8555 24.8361L23.3071 24.662L22.1279 24.4161L21.2769 24.078L21 23.6273C21.0273 22.4254 21.7793 21.3634 23.2559 20.4415C24.7324 19.5195 26.6055 18.9083 28.875 18.6078V17.9317C28.1641 17.6176 27.5488 17.1737 27.0293 16.6C26.5098 16.0263 26.0996 15.3537 25.7988 14.582C25.498 13.8102 25.2793 12.9839 25.1426 12.1029C25.0059 11.222 24.9375 10.2693 24.9375 9.24488C24.9375 8.37073 25.1084 7.5922 25.4502 6.90927C25.792 6.22634 26.2637 5.67659 26.8652 5.26C27.4668 4.84341 28.1572 4.52927 28.9365 4.31756C29.7158 4.10585 30.5703 4 31.5 4C32.4297 4 33.2842 4.10585 34.0635 4.31756C34.8428 4.52927 35.5332 4.84341 36.1348 5.26C36.7363 5.67659 37.208 6.22634 37.5498 6.90927C37.8916 7.5922 38.0625 8.37073 38.0625 9.24488C38.0625 14.0254 36.75 16.9346 34.125 17.9727V18.6078C36.3945 18.9083 38.2676 19.5195 39.7441 20.4415C41.2207 21.3634 41.9727 22.4254 42 23.6273Z" fill="white"/>
<path d="M18.1906 19.2771L18.625 19.2196V18.7815V17.9122V17.5865L18.3271 17.4549C17.4768 17.0791 16.7433 16.5498 16.1226 15.8644C15.4982 15.175 15.002 14.3633 14.6358 13.4238C14.2632 12.4679 13.9909 11.4409 13.8203 10.3414C13.6489 9.23747 13.5625 8.03852 13.5625 6.74341C13.5625 5.68592 13.7688 4.76341 14.1688 3.96427C14.5724 3.15789 15.1243 2.51675 15.8257 2.03106C16.5478 1.53101 17.3825 1.14963 18.3352 0.890805C19.2885 0.631813 20.3424 0.5 21.5 0.5C22.6576 0.5 23.7115 0.631813 24.6648 0.890805C25.6175 1.14963 26.4522 1.53101 27.1743 2.03106C27.8757 2.51675 28.4276 3.15789 28.8312 3.96427C29.2312 4.76341 29.4375 5.68592 29.4375 6.74341C29.4375 12.8414 27.7626 16.2853 24.6911 17.4999L24.375 17.6249V17.9649V18.7815V19.2196L24.8094 19.2771C27.6779 19.6569 30.0128 20.4255 31.8348 21.5631C33.6554 22.6999 34.4669 23.932 34.4999 25.2382C34.4996 25.2448 34.4975 25.256 34.485 25.2764C34.4676 25.3046 34.4286 25.352 34.3466 25.4127C34.1902 25.5285 33.9031 25.6541 33.4368 25.7622C32.9521 25.8746 32.4538 25.9785 31.9421 26.0738C31.4505 26.1654 30.8085 26.2383 30.0105 26.2903C29.2042 26.3429 28.5048 26.3821 27.9116 26.4083C27.3198 26.4344 26.5554 26.4562 25.6171 26.4737C24.6775 26.4913 23.9693 26.5 23.4907 26.5H19.5124L17.3837 26.4737L15.0876 26.4082L12.999 26.2908L11.0455 26.0711L9.59458 25.7686L8.69501 25.4113L8.50623 25.104C8.58998 23.8475 9.40706 22.6609 11.1652 21.5631C12.9872 20.4255 15.3221 19.6569 18.1906 19.2771Z" fill="white" stroke="#231D28"/>
</svg>
