<svg width="36" height="25" viewBox="0 0 36 25" fill="none" xmlns="http://www.w3.org/2000/svg">
<path d="M10.5 7.81348H12C12.3978 7.81348 12.7794 7.97809 13.0607 8.2711C13.342 8.56411 13.5 8.96152 13.5 9.37589C13.5 9.79027 13.342 10.1877 13.0607 10.4807C12.7794 10.7737 12.3978 10.9383 12 10.9383H10.5V12.5007C10.5 12.9151 10.342 13.3125 10.0607 13.6055C9.77936 13.8985 9.39782 14.0631 9 14.0631C8.60218 14.0631 8.22064 13.8985 7.93934 13.6055C7.65804 13.3125 7.5 12.9151 7.5 12.5007V10.9383H6C5.60218 10.9383 5.22064 10.7737 4.93934 10.4807C4.65804 10.1877 4.5 9.79027 4.5 9.37589C4.5 8.96152 4.65804 8.56411 4.93934 8.2711C5.22064 7.97809 5.60218 7.81348 6 7.81348H7.5V6.25107C7.5 5.83669 7.65804 5.43929 7.93934 5.14628C8.22064 4.85327 8.60218 4.68866 9 4.68866C9.39782 4.68866 9.77936 4.85327 10.0607 5.14628C10.342 5.43929 10.5 5.83669 10.5 6.25107V7.81348ZM13.977 1.56384H22.023C23.379 0.626354 24.9538 0.0894339 26.5796 0.010237C28.2053 -0.0689599 29.8213 0.312531 31.2554 1.1141C32.6896 1.91566 33.8882 3.1073 34.7237 4.56216C35.5591 6.01701 36.0002 7.68062 36 9.37589C36 14.5537 31.971 25 27 25C24.036 25 21.4065 21.2846 19.767 17.1879H16.233C14.595 21.2846 11.964 25 9 25C4.029 25 1.04123e-07 14.5537 1.04123e-07 9.37589C-0.000247427 7.68062 0.440854 6.01701 1.27635 4.56216C2.11184 3.1073 3.31045 1.91566 4.74458 1.1141C6.1787 0.312531 7.79467 -0.0689599 9.42045 0.010237C11.0462 0.0894339 12.621 0.626354 13.977 1.56384ZM22.929 4.68866H13.071L12.315 4.16525C11.4108 3.54098 10.3611 3.18371 9.27747 3.13145C8.19386 3.0792 7.11692 3.33392 6.16124 3.86851C5.20556 4.4031 4.4069 5.19756 3.85024 6.16735C3.29358 7.13714 2.99974 8.24599 3 9.37589C3 14.2459 6.813 21.8752 9 21.8752C10.083 21.8752 12.006 19.6284 13.464 15.9849L14.235 14.0631H21.768L22.5375 15.9849C23.994 19.6284 25.917 21.8752 27 21.8752C29.187 21.8752 33 14.2459 33 9.37589C33.0003 8.24599 32.7064 7.13714 32.1498 6.16735C31.5931 5.19756 30.7944 4.4031 29.8388 3.86851C28.8831 3.33392 27.8061 3.0792 26.7225 3.13145C25.6389 3.18371 24.5892 3.54098 23.685 4.16525L22.929 4.68866ZM27 7.81348C26.6022 7.81348 26.2206 7.64887 25.9393 7.35586C25.658 7.06285 25.5 6.66545 25.5 6.25107C25.5 5.83669 25.658 5.43929 25.9393 5.14628C26.2206 4.85327 26.6022 4.68866 27 4.68866C27.3978 4.68866 27.7794 4.85327 28.0607 5.14628C28.342 5.43929 28.5 5.83669 28.5 6.25107C28.5 6.66545 28.342 7.06285 28.0607 7.35586C27.7794 7.64887 27.3978 7.81348 27 7.81348ZM24 10.9383C23.6022 10.9383 23.2206 10.7737 22.9393 10.4807C22.658 10.1877 22.5 9.79027 22.5 9.37589C22.5 8.96152 22.658 8.56411 22.9393 8.2711C23.2206 7.97809 23.6022 7.81348 24 7.81348C24.3978 7.81348 24.7794 7.97809 25.0607 8.2711C25.342 8.56411 25.5 8.96152 25.5 9.37589C25.5 9.79027 25.342 10.1877 25.0607 10.4807C24.7794 10.7737 24.3978 10.9383 24 10.9383ZM30 10.9383C29.6022 10.9383 29.2206 10.7737 28.9393 10.4807C28.658 10.1877 28.5 9.79027 28.5 9.37589C28.5 8.96152 28.658 8.56411 28.9393 8.2711C29.2206 7.97809 29.6022 7.81348 30 7.81348C30.3978 7.81348 30.7794 7.97809 31.0607 8.2711C31.342 8.56411 31.5 8.96152 31.5 9.37589C31.5 9.79027 31.342 10.1877 31.0607 10.4807C30.7794 10.7737 30.3978 10.9383 30 10.9383ZM27 14.0631C26.6022 14.0631 26.2206 13.8985 25.9393 13.6055C25.658 13.3125 25.5 12.9151 25.5 12.5007C25.5 12.0863 25.658 11.6889 25.9393 11.3959C26.2206 11.1029 26.6022 10.9383 27 10.9383C27.3978 10.9383 27.7794 11.1029 28.0607 11.3959C28.342 11.6889 28.5 12.0863 28.5 12.5007C28.5 12.9151 28.342 13.3125 28.0607 13.6055C27.7794 13.8985 27.3978 14.0631 27 14.0631Z" fill="white"/>
</svg>
