<svg width="27" height="26" viewBox="0 0 27 26" fill="none" xmlns="http://www.w3.org/2000/svg">
<path d="M23.625 6.17386H2.53125V5.34777L21.0938 3.89386V5.34777H23.625V2.86951C23.625 1.05211 22.1214 -0.22337 20.2854 0.0327176L3.34125 2.40194C1.50356 2.65968 0 4.35647 0 6.17386V22.6956C0 23.572 0.355579 24.4125 0.988514 25.0322C1.62145 25.6519 2.47989 26 3.375 26H23.625C24.5201 26 25.3785 25.6519 26.0115 25.0322C26.6444 24.4125 27 23.572 27 22.6956V9.47822C27 8.60185 26.6444 7.76137 26.0115 7.14169C25.3785 6.522 24.5201 6.17386 23.625 6.17386ZM21.0938 17.749C20.7612 17.7489 20.432 17.6847 20.1248 17.56C19.8177 17.4353 19.5386 17.2526 19.3035 17.0223C19.0685 16.792 18.8821 16.5187 18.7549 16.2179C18.6278 15.9171 18.5624 15.5947 18.5625 15.2691C18.5626 14.9435 18.6282 14.6212 18.7556 14.3205C18.8829 14.0197 19.0695 13.7465 19.3047 13.5164C19.5399 13.2862 19.8191 13.1037 20.1264 12.9792C20.4336 12.8547 20.7629 12.7907 21.0954 12.7908C21.767 12.7911 22.4109 13.0525 22.8857 13.5175C23.3604 13.9826 23.6269 14.6133 23.6267 15.2708C23.6265 15.9283 23.3595 16.5587 22.8845 17.0235C22.4094 17.4883 21.7653 17.7492 21.0938 17.749Z" fill="white"/>
</svg>
