<svg width="18" height="19" viewBox="0 0 18 19" fill="none" xmlns="http://www.w3.org/2000/svg">
<path d="M17.22 15.2297C16.6563 14.7272 16.1629 14.1512 15.7528 13.517C15.3052 12.6418 15.0369 11.6859 14.9637 10.7055V7.81797C14.9676 6.27811 14.409 4.78984 13.393 3.63278C12.3769 2.47572 10.9733 1.72952 9.44586 1.53437V0.780335C9.44586 0.573377 9.36364 0.374896 9.2173 0.228555C9.07096 0.0822137 8.87248 0 8.66552 0C8.45856 0 8.26008 0.0822137 8.11374 0.228555C7.9674 0.374896 7.88519 0.573377 7.88519 0.780335V1.54606C6.37143 1.75527 4.98478 2.50599 3.98207 3.65916C2.97935 4.81234 2.42853 6.28982 2.43161 7.81797V10.7055C2.3584 11.6859 2.09012 12.6418 1.6425 13.517C1.2397 14.1497 0.754146 14.7257 0.198737 15.2297C0.136387 15.2845 0.0864164 15.3519 0.0521494 15.4275C0.0178825 15.5031 0.000105095 15.5851 0 15.6681V16.463C0 16.6181 0.0615832 16.7667 0.171202 16.8763C0.280821 16.986 0.429496 17.0476 0.584521 17.0476H16.8342C16.9892 17.0476 17.1379 16.986 17.2475 16.8763C17.3571 16.7667 17.4187 16.6181 17.4187 16.463V15.6681C17.4186 15.5851 17.4008 15.5031 17.3666 15.4275C17.3323 15.3519 17.2823 15.2845 17.22 15.2297ZM1.2158 15.8785C1.75965 15.3531 2.23848 14.7644 2.64203 14.1249C3.20587 13.0678 3.53485 11.9014 3.60649 10.7055V7.81797C3.58331 7.13293 3.69822 6.45023 3.94437 5.81053C4.19053 5.17082 4.56289 4.58719 5.0393 4.09439C5.5157 3.60159 6.08641 3.2097 6.71742 2.94205C7.34843 2.67441 8.02685 2.53647 8.71228 2.53647C9.39771 2.53647 10.0761 2.67441 10.7071 2.94205C11.3382 3.2097 11.9089 3.60159 12.3853 4.09439C12.8617 4.58719 13.234 5.17082 13.4802 5.81053C13.7263 6.45023 13.8413 7.13293 13.8181 7.81797V10.7055C13.8897 11.9014 14.2187 13.0678 14.7825 14.1249C15.1861 14.7644 15.6649 15.3531 16.2088 15.8785H1.2158Z" fill="white"/>
<path d="M8.73864 18.9998C9.10685 18.9913 9.46019 18.8529 9.73618 18.609C10.0122 18.3651 10.193 18.0315 10.2467 17.6671H7.17212C7.22734 18.0414 7.41664 18.3829 7.70479 18.628C7.99295 18.8732 8.36035 19.0053 8.73864 18.9998Z" fill="white"/>
</svg>
